<svg width="70" height="71" viewBox="0 0 70 71" fill="none" xmlns="http://www.w3.org/2000/svg">
<g id="Frame">
<path id="Vector" d="M56.875 42.0625V34.4063C56.875 31.7955 55.8379 29.2917 53.9918 27.4457C52.1458 25.5996 49.642 24.5625 47.0313 24.5625H42.6563C41.786 24.5625 40.9514 24.2168 40.3361 23.6014C39.7207 22.9861 39.375 22.1515 39.375 21.2813V16.9063C39.375 14.2955 38.3379 11.7917 36.4918 9.94567C34.6458 8.09961 32.142 7.0625 29.5313 7.0625H24.0625M24.0625 44.25H45.9375M24.0625 53H35M30.625 7.0625H16.4063C14.595 7.0625 13.125 8.5325 13.125 10.3438V60.6563C13.125 62.4675 14.595 63.9375 16.4063 63.9375H53.5938C55.405 63.9375 56.875 62.4675 56.875 60.6563V33.3125C56.875 26.3506 54.1094 19.6738 49.1866 14.7509C44.2637 9.82812 37.5869 7.0625 30.625 7.0625Z" stroke="#B7793A" stroke-width="5" stroke-linecap="round" stroke-linejoin="round"/>
</g>
</svg>
