<svg width="70" height="71" viewBox="0 0 70 71" fill="none" xmlns="http://www.w3.org/2000/svg">
<g id="Frame">
<path id="Vector" d="M43.75 56.29C46.2378 57.0123 48.8157 57.3776 51.4062 57.375C55.5724 57.381 59.6844 56.4311 63.4258 54.5983C63.5364 51.9841 62.7918 49.4051 61.3048 47.2522C59.8178 45.0993 57.6694 43.4898 55.1854 42.6677C52.7013 41.8456 50.017 41.8558 47.5392 42.6966C45.0614 43.5374 42.9253 45.163 41.4546 47.3271M43.75 56.29V56.2812C43.75 53.035 42.9158 49.9812 41.4546 47.3271M43.75 56.29V56.5992C38.1368 59.9799 31.7059 61.7611 25.1533 61.75C18.3546 61.75 11.9933 59.8687 6.56249 56.5992L6.55957 56.2812C6.55733 52.1526 7.92928 48.1406 10.4591 44.8779C12.9889 41.6151 16.5327 39.2871 20.5318 38.2609C24.5309 37.2347 28.7578 37.5687 32.5461 39.2103C36.3344 40.8518 39.4686 43.7075 41.4546 47.3271M35 19.0937C35 21.7045 33.9629 24.2083 32.1168 26.0543C30.2708 27.9004 27.767 28.9375 25.1562 28.9375C22.5455 28.9375 20.0417 27.9004 18.1957 26.0543C16.3496 24.2083 15.3125 21.7045 15.3125 19.0937C15.3125 16.483 16.3496 13.9792 18.1957 12.1332C20.0417 10.2871 22.5455 9.25 25.1562 9.25C27.767 9.25 30.2708 10.2871 32.1168 12.1332C33.9629 13.9792 35 16.483 35 19.0937ZM59.0625 25.6562C59.0625 27.6868 58.2559 29.6342 56.82 31.07C55.3842 32.5059 53.4368 33.3125 51.4062 33.3125C49.3757 33.3125 47.4283 32.5059 45.9924 31.07C44.5566 29.6342 43.75 27.6868 43.75 25.6562C43.75 23.6257 44.5566 21.6783 45.9924 20.2425C47.4283 18.8066 49.3757 18 51.4062 18C53.4368 18 55.3842 18.8066 56.82 20.2425C58.2559 21.6783 59.0625 23.6257 59.0625 25.6562Z" stroke="#B7793A" stroke-width="5" stroke-linecap="round" stroke-linejoin="round"/>
</g>
</svg>
