<svg width="70" height="71" viewBox="0 0 70 71" fill="none" xmlns="http://www.w3.org/2000/svg">
<g id="Frame">
<path id="Vector" d="M63.4375 20.1875C63.4377 22.0056 63.0601 23.8039 62.3288 25.4684C61.5974 27.1329 60.5282 28.6273 59.1889 29.8569C57.8496 31.0865 56.2695 32.0244 54.5487 32.6112C52.8279 33.1981 51.004 33.421 49.1925 33.2658C46.0542 33.0004 42.5892 33.4729 40.5883 35.9025L19.7283 61.2308C19.0703 62.0329 18.2516 62.6884 17.325 63.1549C16.3983 63.6215 15.3843 63.8889 14.3481 63.9399C13.3118 63.9909 12.2764 63.8244 11.3084 63.4511C10.3404 63.0777 9.46134 62.5059 8.72773 61.7722C7.99412 61.0386 7.42224 60.1595 7.0489 59.1916C6.67556 58.2236 6.50903 57.1882 6.56003 56.1519C6.61104 55.1157 6.87844 54.1016 7.34503 53.175C7.81162 52.2483 8.46706 51.4297 9.26917 50.7716L34.5975 29.9116C37.0271 27.9108 37.4996 24.4458 37.2342 21.3075C37.0384 19.0271 37.4422 16.7352 38.4058 14.6592C39.3693 12.5832 40.8589 10.7952 42.7268 9.47266C44.5948 8.15013 46.776 7.33904 49.0543 7.11989C51.3325 6.90073 53.6284 7.28112 55.7142 8.22331L46.1592 17.7783C46.5288 19.3769 47.3399 20.8396 48.5002 21.9998C49.6604 23.16 51.1231 23.9712 52.7217 24.3408L62.2767 14.7858C63.0233 16.4337 63.4375 18.2625 63.4375 20.1875Z" stroke="#B7793A" stroke-width="5" stroke-linecap="round" stroke-linejoin="round"/>
<path id="Vector_2" d="M14.1954 56.2812H14.2188V56.3046H14.1954V56.2812Z" stroke="#B7793A" stroke-width="1.5" stroke-linecap="round" stroke-linejoin="round"/>
</g>
</svg>
