<svg width="70" height="71" viewBox="0 0 70 71" fill="none" xmlns="http://www.w3.org/2000/svg">
<g id="PlayOutline">
<path id="Vector" d="M43.0267 33.073L33.7021 26.8547C33.2624 26.5614 32.7513 26.393 32.2234 26.3676C31.6955 26.3422 31.1706 26.4608 30.7048 26.7106C30.239 26.9604 29.8499 27.3321 29.579 27.7859C29.3081 28.2398 29.1656 28.7587 29.1667 29.2872V41.721C29.1666 42.249 29.3099 42.7671 29.5812 43.2201C29.8526 43.6731 30.2418 44.044 30.7074 44.2931C31.173 44.5422 31.6974 44.6602 32.2249 44.6346C32.7523 44.609 33.2629 44.4407 33.7021 44.1476L43.0267 37.9293C43.4262 37.6629 43.7537 37.3021 43.9802 36.8788C44.2067 36.4554 44.3253 35.9827 44.3253 35.5026C44.3253 35.0225 44.2067 34.5498 43.9802 34.1265C43.7537 33.7032 43.4262 33.3394 43.0267 33.073Z" stroke="#B7793A" stroke-width="5" stroke-linecap="round" stroke-linejoin="round"/>
<path id="Vector_2" d="M61.25 35.5C61.25 38.9472 60.571 42.3606 59.2518 45.5454C57.9327 48.7302 55.9991 51.624 53.5616 54.0616C51.124 56.4991 48.2302 58.4327 45.0454 59.7518C41.8606 61.071 38.4472 61.75 35 61.75C31.5528 61.75 28.1394 61.071 24.9546 59.7518C21.7698 58.4327 18.876 56.4991 16.4384 54.0616C14.0009 51.624 12.0673 48.7302 10.7482 45.5454C9.42898 42.3606 8.75 38.9472 8.75 35.5C8.75 28.5381 11.5156 21.8613 16.4384 16.9384C21.3613 12.0156 28.0381 9.25 35 9.25C41.9619 9.25 48.6387 12.0156 53.5616 16.9384C58.4844 21.8613 61.25 28.5381 61.25 35.5Z" stroke="#B7793A" stroke-width="5" stroke-linecap="round" stroke-linejoin="round"/>
</g>
</svg>
