<svg width="204" height="46" viewBox="0 0 204 46" fill="none" xmlns="http://www.w3.org/2000/svg">
<g filter="url(#filter0_d_528_3686)">
<rect x="2" width="200" height="42" rx="5" fill="#BEDDFA"/>
<path d="M80.232 26V14.72H82.28V24.256H87.688V26H80.232ZM93.663 26.16C92.575 26.16 91.6203 25.92 90.799 25.44C89.9883 24.96 89.359 24.288 88.911 23.424C88.463 22.5493 88.239 21.5253 88.239 20.352C88.239 19.168 88.463 18.144 88.911 17.28C89.359 16.416 89.9883 15.7493 90.799 15.28C91.6097 14.8 92.5643 14.56 93.663 14.56C94.7617 14.56 95.7163 14.8 96.527 15.28C97.3377 15.7493 97.967 16.416 98.415 17.28C98.863 18.144 99.087 19.1627 99.087 20.336C99.087 21.52 98.863 22.5493 98.415 23.424C97.967 24.288 97.3377 24.96 96.527 25.44C95.7163 25.92 94.7617 26.16 93.663 26.16ZM93.663 24.4C94.6977 24.4 95.503 24.0427 96.079 23.328C96.655 22.6133 96.943 21.6213 96.943 20.352C96.943 19.072 96.655 18.08 96.079 17.376C95.5137 16.672 94.7083 16.32 93.663 16.32C92.6283 16.32 91.823 16.672 91.247 17.376C90.671 18.08 90.383 19.072 90.383 20.352C90.383 21.6213 90.671 22.6133 91.247 23.328C91.823 24.0427 92.6283 24.4 93.663 24.4ZM106.594 26.16C105.346 26.16 104.29 25.9253 103.426 25.456C102.572 24.9867 101.922 24.32 101.474 23.456C101.026 22.592 100.802 21.568 100.802 20.384C100.802 19.1893 101.031 18.16 101.49 17.296C101.948 16.4213 102.61 15.7493 103.474 15.28C104.338 14.8 105.372 14.56 106.578 14.56C107.367 14.56 108.108 14.6773 108.802 14.912C109.495 15.136 110.071 15.4507 110.53 15.856L109.842 17.456C109.34 17.0613 108.828 16.7787 108.306 16.608C107.783 16.4373 107.207 16.352 106.578 16.352C105.383 16.352 104.476 16.6987 103.858 17.392C103.25 18.0853 102.946 19.0827 102.946 20.384C102.946 21.696 103.26 22.6933 103.89 23.376C104.519 24.0587 105.452 24.4 106.69 24.4C107.042 24.4 107.399 24.3733 107.762 24.32C108.135 24.256 108.503 24.1653 108.866 24.048V21.424H106.274V19.904H110.578V25.328C110.055 25.584 109.436 25.7867 108.722 25.936C108.007 26.0853 107.298 26.16 106.594 26.16ZM118.007 26.16C116.919 26.16 115.964 25.92 115.143 25.44C114.332 24.96 113.703 24.288 113.255 23.424C112.807 22.5493 112.583 21.5253 112.583 20.352C112.583 19.168 112.807 18.144 113.255 17.28C113.703 16.416 114.332 15.7493 115.143 15.28C115.953 14.8 116.908 14.56 118.007 14.56C119.105 14.56 120.06 14.8 120.871 15.28C121.681 15.7493 122.311 16.416 122.759 17.28C123.207 18.144 123.431 19.1627 123.431 20.336C123.431 21.52 123.207 22.5493 122.759 23.424C122.311 24.288 121.681 24.96 120.871 25.44C120.06 25.92 119.105 26.16 118.007 26.16ZM118.007 24.4C119.041 24.4 119.847 24.0427 120.423 23.328C120.999 22.6133 121.287 21.6213 121.287 20.352C121.287 19.072 120.999 18.08 120.423 17.376C119.857 16.672 119.052 16.32 118.007 16.32C116.972 16.32 116.167 16.672 115.591 17.376C115.015 18.08 114.727 19.072 114.727 20.352C114.727 21.6213 115.015 22.6133 115.591 23.328C116.167 24.0427 116.972 24.4 118.007 24.4Z" fill="black"/>
</g>
<defs>
<filter id="filter0_d_528_3686" x="0" y="0" width="204" height="46" filterUnits="userSpaceOnUse" color-interpolation-filters="sRGB">
<feFlood flood-opacity="0" result="BackgroundImageFix"/>
<feColorMatrix in="SourceAlpha" type="matrix" values="0 0 0 0 0 0 0 0 0 0 0 0 0 0 0 0 0 0 127 0" result="hardAlpha"/>
<feOffset dy="2"/>
<feGaussianBlur stdDeviation="1"/>
<feComposite in2="hardAlpha" operator="out"/>
<feColorMatrix type="matrix" values="0 0 0 0 0.105882 0 0 0 0 0.105882 0 0 0 0 0.105882 0 0 0 0.25 0"/>
<feBlend mode="normal" in2="BackgroundImageFix" result="effect1_dropShadow_528_3686"/>
<feBlend mode="normal" in="SourceGraphic" in2="effect1_dropShadow_528_3686" result="shape"/>
</filter>
</defs>
</svg>
