<svg width="4107" height="1317" viewBox="0 0 4107 1317" fill="none" xmlns="http://www.w3.org/2000/svg">
<g clip-path="url(#clip0_976_1027)">
<path d="M1047.46 625.665L1025.26 631.438C1023.28 631.931 1021.18 631.62 1019.42 630.573C1017.66 629.525 1016.39 627.826 1015.88 625.845C1006.5 593.191 992.421 574.248 977.264 573.707C955.972 572.263 923.132 604.377 905.088 658.319C893.981 689.892 890.277 723.593 894.262 756.824H900.036C923.562 752.879 945.825 743.438 965.014 729.268C984.202 715.098 999.775 696.6 1010.47 675.278C1011.41 673.207 1013.13 671.592 1015.26 670.782C1017.39 669.972 1019.75 670.031 1021.83 670.948L1042.76 680.33C1043.62 680.698 1044.4 681.238 1045.04 681.917C1045.69 682.597 1046.19 683.401 1046.51 684.279C1046.83 685.158 1046.97 686.093 1046.91 687.028C1046.86 687.962 1046.61 688.875 1046.19 689.711C1032.81 717.324 1012.87 741.245 988.117 759.389C963.365 777.533 934.551 789.349 904.186 793.808H902.201C912.891 823.084 931.661 848.731 956.333 867.777C958.058 869.102 959.207 871.04 959.543 873.189C959.878 875.338 959.375 877.534 958.138 879.323L945.687 897.364C944.989 898.351 944.099 899.188 943.071 899.825C942.043 900.461 940.897 900.885 939.702 901.07C938.507 901.255 937.287 901.198 936.114 900.902C934.942 900.607 933.84 900.078 932.876 899.348C897.869 872.748 872.522 835.43 860.7 793.086C828.083 786.647 799.054 768.242 779.321 741.489C763.69 721.257 752.627 697.879 746.896 672.964C741.165 648.048 740.9 622.187 746.12 597.16C755.684 551.155 795.381 447.599 957.416 463.656C959.733 463.928 961.849 465.104 963.302 466.929C964.756 468.754 965.429 471.079 965.175 473.398L962.468 495.408C962.241 497.389 961.243 499.2 959.689 500.45C958.135 501.699 956.152 502.286 954.168 502.084C833.995 489.996 795.2 550.975 784.013 604.918C779.908 624.489 780.089 644.717 784.543 664.212C788.997 683.707 797.618 702.007 809.816 717.855C820.806 732.882 835.908 744.41 853.302 751.051C850.757 715.426 855.421 679.653 867.015 645.871C890.473 578.037 935.041 533.655 977.625 535.279C1001.62 535.279 1033.38 551.155 1052.15 615.742C1052.75 617.683 1052.6 619.779 1051.73 621.616C1050.86 623.454 1049.34 624.898 1047.46 625.665Z" fill="white"/>
<path d="M1820.82 779.195L1816.49 758.809C1816.26 757.765 1815.82 756.778 1815.2 755.904C1814.58 755.03 1813.8 754.286 1812.9 753.716C1811.99 753.146 1810.98 752.761 1809.93 752.582C1808.87 752.403 1807.79 752.435 1806.75 752.675C1752.62 763.319 1736.56 750.51 1705.34 740.407C1708.64 698.151 1709.18 655.724 1706.96 613.398C1705.74 592.367 1697.25 572.412 1682.97 556.929C1684.77 548.269 1686.57 538.888 1688.2 530.769C1713.59 396.938 1725.26 260.865 1723.02 124.664C1723.02 55.7473 1691.27 3.42811 1646.88 0.180715C1628.83 -1.26257 1569.47 5.23222 1550.7 138.917C1540.9 258.466 1539.57 378.559 1546.73 498.295C1546.92 500.337 1547.88 502.228 1549.43 503.574C1550.98 504.919 1552.99 505.613 1555.03 505.512L1578.67 505.151C1580.55 505.012 1582.31 504.141 1583.56 502.724C1584.8 501.308 1585.45 499.459 1585.35 497.574C1578.21 379.885 1579.48 261.838 1589.14 144.329C1599.42 70.3606 1625.23 38.6082 1644.17 39.3299C1663.12 40.0515 1684.77 74.1492 1684.59 125.747C1686.68 259.048 1675.19 392.216 1650.31 523.192L1648.14 535.28C1645.29 534.41 1642.4 533.687 1639.48 533.115C1626.39 530.726 1612.87 533.036 1601.32 539.637C1589.77 546.239 1580.91 556.707 1576.33 569.197C1564.18 603.641 1564.89 641.312 1578.31 675.279C1563.95 691.013 1548.38 705.61 1531.76 718.938C1536.81 686.584 1542.46 652.667 1548.72 617.186C1549.04 615.348 1548.64 613.457 1547.59 611.91C1546.55 610.362 1544.95 609.279 1543.12 608.887L1520.03 604.738C1517.92 604.369 1515.76 604.844 1514 606.059C1512.25 607.275 1511.04 609.134 1510.65 611.233C1503.25 652.547 1495.49 699.273 1488.27 748.525C1475.5 756.42 1461.46 762.036 1446.77 765.123C1445.87 765.232 1445.01 765.523 1444.22 765.977C1443.44 766.431 1442.76 767.039 1442.22 767.764C1441.68 768.49 1441.29 769.318 1441.08 770.197C1440.87 771.077 1440.84 771.99 1441 772.881L1442.8 789.298C1442.93 790.409 1443.29 791.483 1443.84 792.453C1444.4 793.424 1445.15 794.271 1446.04 794.946C1446.94 795.62 1447.96 796.106 1449.04 796.376C1450.13 796.646 1451.26 796.693 1452.36 796.515C1462.86 794.368 1473.04 790.913 1482.68 786.231C1453.81 992.261 1436.48 1226.79 1493.86 1295.35C1499.02 1302.04 1505.63 1307.47 1513.2 1311.22C1520.76 1314.97 1529.09 1316.95 1537.53 1317C1629.38 1317 1674.67 1178.26 1699.93 822.313C1699.93 811.308 1701.55 799.582 1702.45 787.675C1702.64 785.032 1702.64 782.379 1702.45 779.736C1736.92 789.479 1759.47 801.025 1813.24 790.742C1814.5 790.484 1815.7 789.98 1816.76 789.26C1817.82 788.539 1818.73 787.616 1819.43 786.543C1820.14 785.47 1820.62 784.269 1820.86 783.008C1821.1 781.747 1821.09 780.451 1820.82 779.195ZM1612.23 583.089C1613.52 579.388 1615.98 576.207 1619.23 574.026C1622.49 571.846 1626.37 570.784 1630.28 571.001H1634.25C1636.09 571.313 1637.9 571.796 1639.66 572.444C1634.52 592.617 1626.24 611.855 1615.12 629.454L1608.81 638.655C1604.84 620.168 1606.03 600.949 1612.23 583.089ZM1663.3 784.788C1663.3 796.875 1661.67 808.422 1660.77 819.607C1647.24 1016.62 1619.63 1278.57 1537.53 1278.57C1534.7 1278.46 1531.93 1277.69 1529.46 1276.31C1526.98 1274.93 1524.86 1272.98 1523.28 1270.63C1491.34 1232.39 1478.17 1079.22 1524.9 764.041C1550.65 747.96 1574.82 729.475 1597.08 708.835L1600.5 713.706C1617.68 736.024 1639.96 753.903 1665.46 765.845C1664.2 772.159 1663.84 778.474 1663.3 784.788ZM1667.63 723.448C1653.72 714.688 1641.5 703.506 1631.54 690.433C1629.15 687.28 1626.98 683.965 1625.04 680.51C1633.19 671.076 1640.72 661.133 1647.6 650.743C1656.01 637.71 1662.97 623.796 1668.35 609.248C1668.54 611.469 1668.54 613.702 1668.35 615.923C1670.44 651.743 1670.2 687.66 1667.63 723.448Z" fill="white"/>
<path d="M715.445 770.536C546.193 770.536 415.734 721.464 337.604 626.207C265.428 539.79 242.151 420.358 269.397 290.282C284.947 223.917 318.783 163.235 367.068 115.117C415.354 66.999 476.157 33.3695 542.584 18.0416C685.673 -18.0406 828.762 30.6704 928.365 146.855C929.739 148.569 930.394 150.75 930.192 152.937C929.99 155.124 928.947 157.148 927.282 158.582L910.321 172.473C908.606 173.847 906.426 174.502 904.238 174.3C902.05 174.098 900.026 173.055 898.592 171.391C857.671 121.235 803.383 83.6888 742.009 63.0959C680.635 42.5029 614.684 39.705 551.786 55.0259C492.256 68.6006 437.731 98.6067 394.412 141.631C351.094 184.655 320.721 238.971 306.748 298.4C281.848 416.75 303.32 524.636 367.015 601.851C437.387 687.547 558.102 732.469 714.543 731.928C715.531 731.951 716.503 732.171 717.404 732.576C718.305 732.981 719.116 733.562 719.788 734.285C720.461 735.008 720.982 735.858 721.321 736.786C721.66 737.713 721.809 738.699 721.761 739.685V763.319C721.737 765.076 721.088 766.767 719.931 768.089C718.774 769.411 717.184 770.279 715.445 770.536Z" fill="white"/>
<path d="M99.7835 787.674C65.6089 787.175 32.2469 777.18 3.42839 758.808C2.60467 758.328 1.88728 757.685 1.31977 756.918C0.752272 756.152 0.346505 755.278 0.12712 754.35C-0.092265 753.422 -0.12069 752.459 0.0435727 751.52C0.207835 750.58 0.561356 749.684 1.08266 748.886L14.6157 727.958C15.0572 727.238 15.6389 726.613 16.3262 726.122C17.0134 725.63 17.7924 725.282 18.6168 725.097C19.4413 724.912 20.2945 724.894 21.1259 725.045C21.9574 725.195 22.7501 725.511 23.4573 725.974C116.925 787.674 185.853 732.107 265.067 634.866C266.515 633.455 268.458 632.666 270.48 632.666C272.502 632.666 274.444 633.455 275.893 634.866L291.772 649.479C292.656 650.352 293.357 651.391 293.836 652.537C294.315 653.683 294.562 654.913 294.562 656.154C294.562 657.396 294.315 658.626 293.836 659.772C293.357 660.918 292.656 661.957 291.772 662.83C243.955 714.968 188.199 787.674 99.7835 787.674Z" fill="white"/>
<path d="M2095.45 760.432V781.179C2095.41 782.565 2095.08 783.928 2094.49 785.178C2093.89 786.429 2093.03 787.541 2091.98 788.442C2090.93 789.343 2089.7 790.013 2088.37 790.409C2087.04 790.805 2085.64 790.918 2084.27 790.741C2035.73 784.427 2008.66 739.143 1978.53 685.742C1949.8 718.516 1916.43 746.902 1879.47 769.994C1878.6 770.56 1877.64 770.949 1876.62 771.138C1875.61 771.327 1874.57 771.312 1873.56 771.094C1872.55 770.875 1871.6 770.458 1870.75 769.866C1869.91 769.275 1869.19 768.521 1868.64 767.648L1856.01 747.262C1855.55 746.505 1855.25 745.666 1855.12 744.792C1855 743.918 1855.04 743.028 1855.26 742.172C1855.48 741.316 1855.86 740.512 1856.39 739.806C1856.93 739.101 1857.59 738.508 1858.35 738.061C1896.44 714.327 1930.95 685.29 1960.84 651.825C1948.75 627.289 1938.11 602.212 1928.55 579.66C1921.87 563.243 1916.82 543.578 1911.94 530.228C1911.3 528.288 1911.43 526.174 1912.3 524.325C1913.17 522.477 1914.73 521.037 1916.64 520.305L1937.21 512.728C1938.3 512.324 1939.46 512.139 1940.62 512.184C1941.78 512.228 1942.92 512.501 1943.98 512.987C1945.03 513.473 1945.98 514.162 1946.77 515.016C1947.56 515.869 1948.17 516.869 1948.57 517.96C1953.45 532.212 1957.42 548.269 1964.27 564.867C1971.13 581.464 1979.07 600.949 1987.73 618.99C2127.21 429.017 2090.04 172.473 2055.39 89.4837C2043.12 60.4375 2027.07 43.1181 2009.56 40.9531C1999.09 38.7447 1988.24 39.0658 1977.92 41.8897C1967.59 44.7136 1958.09 49.9588 1950.2 57.1901C1907.79 98.6846 1908.52 250.591 1927.82 454.094C1927.98 456.565 1927.19 459.003 1925.62 460.913C1924.04 462.823 1921.8 464.062 1919.34 464.378L1897.87 466.362C1896.87 466.462 1895.87 466.363 1894.91 466.071C1893.95 465.78 1893.06 465.302 1892.29 464.664C1891.52 464.027 1890.88 463.243 1890.41 462.358C1889.95 461.472 1889.66 460.503 1889.57 459.507C1868.1 236.158 1870.44 80.6435 1923.31 29.2264C1935.25 18.0831 1949.61 9.85696 1965.27 5.19309C1980.92 0.52921 1997.44 -0.44557 2013.53 2.34519C2045.11 6.31424 2072.54 31.9326 2090.04 74.5096C2136.77 186.184 2144.17 462.934 2003.97 653.448C2030.31 703.603 2051.06 746.721 2087.15 752.494C2089.29 752.492 2091.35 753.317 2092.9 754.796C2094.44 756.275 2095.36 758.294 2095.45 760.432Z" fill="white"/>
<path d="M3482.5 677.624C3469.23 705.344 3448.72 728.968 3423.13 746C3414.25 751.391 3403.8 753.629 3393.49 752.352C3383.18 751.075 3373.59 746.358 3366.29 738.964C3321 696.026 3311.08 569.558 3344.64 478.27C3345.59 475.804 3345.54 473.062 3344.5 470.633C3343.45 468.205 3341.49 466.283 3339.05 465.28L3322.27 458.425C3321 457.899 3319.64 457.632 3318.27 457.638C3316.9 457.645 3315.54 457.925 3314.28 458.463C3313.02 459.001 3311.88 459.785 3310.93 460.77C3309.98 461.755 3309.23 462.92 3308.73 464.198C3280.42 542.524 3278.71 627.995 3303.86 707.392C3289.97 735.716 3252.25 761.515 3230.24 751.051C3158.97 719.479 3158.07 443.27 3158.07 260.514V252.576C3192.59 249.088 3226.93 246.201 3261.1 243.916C3262.95 243.733 3264.66 242.843 3265.87 241.431C3267.08 240.02 3267.69 238.195 3267.59 236.339L3265.79 211.803C3265.74 210.886 3265.51 209.988 3265.11 209.161C3264.71 208.334 3264.15 207.596 3263.46 206.99C3262.77 206.384 3261.97 205.923 3261.1 205.634C3260.23 205.346 3259.31 205.235 3258.39 205.308C3225.01 207.654 3191.45 210.54 3158.07 213.788C3159.37 146.514 3155.27 79.2451 3145.8 12.6293C3145.59 11.6661 3145.18 10.7558 3144.61 9.95481C3144.03 9.15376 3143.3 8.47887 3142.46 7.97175C3141.61 7.46463 3140.67 7.13603 3139.69 7.00622C3138.72 6.87641 3137.72 6.94813 3136.77 7.21697L3112.77 13.1705C3111.98 13.341 3111.22 13.6687 3110.55 14.1347C3109.88 14.6006 3109.31 15.1953 3108.88 15.8841C3108.44 16.5728 3108.14 17.3418 3108.01 18.1459C3107.87 18.9501 3107.9 19.7733 3108.08 20.5674C3116.53 86.3614 3119.84 152.712 3118.01 219.019C3079.03 223.169 3040.06 227.679 3001.44 232.911C3000.52 233.022 2999.62 233.317 2998.81 233.778C2998 234.238 2997.28 234.856 2996.71 235.595C2996.14 236.334 2995.72 237.179 2995.48 238.081C2995.24 238.983 2995.18 239.924 2995.31 240.849L2998.56 265.205C2998.82 267.009 2999.78 268.639 3001.23 269.749C3002.68 270.86 3004.5 271.365 3006.31 271.158C3043.49 266.107 3080.78 261.657 3118.19 257.808V261.416C3118.19 372.008 3119.99 472.497 3127.21 555.666C3127.21 641.001 3099.24 707.572 3073.08 736.077C3069.53 740.684 3065.11 744.539 3060.06 747.42C3055.01 750.3 3049.44 752.148 3043.67 752.855C3020.39 752.855 3005.23 714.608 2998.74 639.016C2998.74 634.325 2998.74 630.537 2997.65 628.011C2985.02 527.522 2952.9 467.987 2904.73 455.538C2888.79 452.743 2872.45 453.204 2856.7 456.894C2840.94 460.583 2826.1 467.426 2813.06 477.007C2806.4 461.861 2796.73 448.228 2784.63 436.938C2772.53 425.648 2758.26 416.938 2742.69 411.337C2741.46 410.926 2740.16 410.775 2738.86 410.893C2737.57 411.011 2736.32 411.396 2735.18 412.023C2734.05 412.65 2733.05 413.507 2732.26 414.538C2731.48 415.569 2730.91 416.752 2730.6 418.013L2724.65 438.399C2724.18 440.311 2724.43 442.33 2725.37 444.063C2726.3 445.797 2727.84 447.122 2729.7 447.781C2741.73 452.033 2752.63 458.972 2761.57 468.069C2770.51 477.166 2777.26 488.182 2781.31 500.28C2759.33 519.571 2739.49 541.164 2722.12 564.687C2721.43 565.576 2720.93 566.597 2720.64 567.687C2720.36 568.777 2720.3 569.914 2720.46 571.028C2720.63 572.142 2721.03 573.21 2721.62 574.167C2722.22 575.124 2723 575.95 2723.93 576.594L2741.97 589.584C2743.79 590.832 2746.01 591.34 2748.19 591.005C2750.37 590.67 2752.34 589.516 2753.7 587.779C2765.12 572.218 2777.73 557.561 2791.41 543.94C2796.82 612.135 2767.41 696.928 2723.02 733.191C2706.6 747.804 2696.32 753.577 2686.94 752.855C2677.55 752.134 2662.76 742.031 2646.34 722.546C2642.73 717.675 2639.48 712.985 2636.41 708.114C2666.25 661.373 2681.4 606.766 2679.9 551.336C2676.47 495.048 2647.78 461.131 2605.2 462.213C2593.01 462.487 2581.15 466.163 2570.94 472.826C2560.74 479.49 2552.6 488.874 2547.46 499.919C2535.37 523.914 2517.14 589.223 2589.86 707.392C2580.48 719.849 2568.71 730.304 2555.23 738.143C2541.75 745.982 2526.83 751.045 2511.37 753.036C2503.33 754.119 2495.16 753.42 2487.42 750.988C2479.69 748.556 2472.59 744.45 2466.62 738.964C2451.82 724.531 2444.6 696.748 2446.05 660.846L2448.57 575.872C2448.57 541.053 2449.84 501.904 2448.57 470.332C2448.55 469.25 2448.31 468.184 2447.87 467.195C2447.43 466.207 2446.8 465.317 2446.01 464.578C2445.22 463.838 2444.29 463.264 2443.27 462.889C2442.25 462.514 2441.17 462.345 2440.09 462.394H2417.9C2415.98 462.394 2414.15 463.154 2412.8 464.507C2411.44 465.861 2410.68 467.696 2410.68 469.61V575.151C2410.68 600.408 2409.42 623.32 2408.88 638.836C2408.08 666.393 2402.78 693.635 2393.18 719.479C2390.07 727.708 2385.24 735.18 2379.02 741.4C2372.79 747.621 2365.32 752.448 2357.09 755.562C2347.3 756.558 2337.42 755.465 2328.09 752.354C2318.75 749.244 2310.19 744.188 2302.96 737.521C2278.24 719.479 2256.77 666.619 2252.07 627.65C2247.77 584.975 2246.03 542.081 2246.84 499.198C2246.84 487.11 2246.84 476.466 2246.84 467.987C2246.7 466.168 2245.88 464.469 2244.55 463.23C2243.21 461.992 2241.45 461.306 2239.62 461.311H2216.35C2214.13 461.359 2212.02 462.273 2210.47 463.858C2208.92 465.443 2208.05 467.573 2208.05 469.791V498.476C2208.05 502.806 2208.05 507.316 2208.05 511.646C2204.98 626.027 2196.86 732.83 2135.87 751.953C2134.67 752.387 2133.65 753.207 2132.96 754.284C2132.28 755.361 2131.97 756.635 2132.08 757.907L2133.71 783.706C2133.8 784.749 2134.13 785.759 2134.65 786.665C2135.18 787.571 2135.9 788.352 2136.75 788.953C2137.61 789.554 2138.59 789.96 2139.62 790.145C2140.65 790.329 2141.71 790.287 2142.73 790.02C2175.93 781.721 2212.2 736.979 2225.55 681.774C2234.77 715.091 2253.6 744.958 2279.68 767.649C2298.94 783.246 2322.61 792.397 2347.35 793.809C2353.41 793.908 2359.47 793.303 2365.39 792.005C2377.86 788.326 2389.44 782.139 2399.43 773.825C2409.42 765.511 2417.61 755.245 2423.49 743.655C2427.71 751.912 2433.19 759.46 2439.73 766.025C2449.61 775.392 2461.41 782.488 2474.31 786.82C2487.21 791.151 2500.91 792.613 2514.43 791.103C2551.99 786.56 2586.52 768.236 2611.33 739.685C2612.41 741.49 2613.68 743.113 2615.12 745.098V746.18C2639.84 775.407 2660.59 789.118 2682.79 790.561C2694.76 790.311 2706.56 787.641 2717.48 782.711C2728.39 777.781 2738.2 770.694 2746.3 761.876C2806.39 712.804 2842.11 599.506 2824.25 513.811C2857.99 490.718 2883.07 489.275 2894.08 492.162C2924.21 499.919 2948.21 552.238 2958.32 632.161C2958.32 634.325 2958.32 637.573 2959.22 641.722C2962.83 682.495 2972.03 790.742 3042.58 790.742C3053.77 790.223 3064.72 787.333 3074.71 782.263C3084.69 777.194 3093.49 770.06 3100.5 761.335C3121.36 736.183 3136.39 706.736 3144.53 675.098C3158.79 732.289 3180.62 771.077 3212.92 785.51C3221.85 789.641 3231.59 791.737 3241.43 791.644C3272.64 786.532 3300.92 770.245 3321 745.819C3325.77 753.304 3331.47 760.154 3337.96 766.206C3353.18 781.452 3373.8 790.075 3395.34 790.201C3409.98 789.931 3424.39 786.484 3437.57 780.098C3464.92 763.929 3487.66 741.006 3503.61 713.526C3495.4 702.286 3488.33 690.26 3482.5 677.624ZM2614.04 671.49C2571.81 596.8 2568.57 544.12 2582.28 517.6C2584.43 512.67 2587.96 508.466 2592.44 505.49C2596.92 502.514 2602.16 500.893 2607.54 500.821C2634.61 500.821 2640.74 533.837 2642.01 553.682C2642.75 594.788 2632.8 635.382 2613.14 671.49H2614.04Z" fill="white"/>
<path d="M3786.18 551.877L3765.61 559.093C3763.6 559.856 3761.37 559.791 3759.4 558.912C3757.44 558.032 3755.91 556.411 3755.14 554.403C3748.45 538.382 3737.17 524.696 3722.73 515.066C3708.28 505.436 3691.31 500.291 3673.94 500.28H3672.68C3619.81 500.28 3573.62 545.202 3549.26 618.268C3542.23 639.866 3533.6 660.911 3523.46 681.232C3517.14 693.5 3510.83 704.324 3504.51 714.247C3495.67 703.029 3487.99 690.939 3481.59 678.165C3488.32 666.505 3494.34 654.456 3499.64 642.083C3504.33 631.438 3508.66 619.531 3512.99 606C3542.76 515.795 3602.31 462.754 3672.5 461.672C3697.98 461.541 3722.91 469.052 3744.08 483.235C3765.24 497.418 3781.67 517.621 3791.23 541.233C3791.89 543.317 3791.73 545.572 3790.79 547.546C3789.86 549.521 3788.21 551.067 3786.18 551.877Z" fill="white"/>
<path d="M3358.89 417.29C3378.43 417.29 3394.26 401.459 3394.26 381.93C3394.26 362.401 3378.43 346.569 3358.89 346.569C3339.36 346.569 3323.53 362.401 3323.53 381.93C3323.53 401.459 3339.36 417.29 3358.89 417.29Z" fill="white"/>
<path d="M1408.52 769.995V789.84C1408.5 790.783 1408.28 791.711 1407.88 792.564C1407.48 793.417 1406.9 794.175 1406.19 794.789C1405.47 795.403 1404.63 795.858 1403.73 796.124C1402.82 796.39 1401.87 796.462 1400.94 796.335C1375.14 791.824 1353.84 770.355 1336.88 732.289C1331.4 713.503 1328.25 694.113 1327.5 674.557C1327.5 664.454 1327.5 653.269 1327.5 641.362C1328.89 615.558 1327.08 589.681 1322.09 564.326C1312.7 531.491 1299.89 511.646 1282.93 503.347C1274.43 499.923 1265.3 498.36 1256.15 498.765C1247 499.169 1238.04 501.532 1229.88 505.693C1219.24 511.143 1209.3 517.868 1200.29 525.718C1205.18 617.982 1178.8 709.198 1125.41 784.608C1124.71 785.595 1123.82 786.432 1122.79 787.069C1121.76 787.705 1120.62 788.129 1119.42 788.314C1118.23 788.499 1117.01 788.442 1115.83 788.146C1114.66 787.851 1113.56 787.322 1112.59 786.592L1094.55 773.783C1092.97 772.506 1091.94 770.672 1091.67 768.659C1091.4 766.645 1091.92 764.605 1093.11 762.959C1135.66 702.851 1159.68 631.607 1162.22 558.012L1153.55 565.228C1138.82 577.225 1124.72 589.992 1111.33 603.475C1110.12 604.644 1108.5 605.297 1106.82 605.297C1105.14 605.297 1103.52 604.644 1102.31 603.475L1084.27 585.434C1082.91 583.995 1082.15 582.091 1082.15 580.112C1082.15 578.133 1082.91 576.23 1084.27 574.79C1102.31 558.012 1113.14 547.548 1129.01 534.378L1140.2 525.177L1153.55 513.631C1155.36 511.827 1157.52 510.203 1159.51 508.399C1156.03 481.28 1148.36 454.866 1136.77 430.1C1136.37 429.333 1136.13 428.492 1136.06 427.629C1135.98 426.765 1136.08 425.896 1136.35 425.072C1136.62 424.248 1137.05 423.486 1137.62 422.832C1138.19 422.177 1138.88 421.643 1139.66 421.26L1159.15 411.157C1165.1 408.09 1169.61 409.714 1171.42 413.503C1181.95 435.253 1189.77 458.218 1194.69 481.878C1201.14 477.484 1207.89 473.565 1214.9 470.152C1228.07 464.021 1242.39 460.754 1256.92 460.568C1271.45 460.381 1285.85 463.279 1299.17 469.069C1326.6 482.239 1346.08 510.203 1358.72 554.043C1366.11 579.661 1361.96 601.13 1361.6 644.248C1361.24 687.366 1356.73 728.139 1403.64 764.402C1404.89 764.806 1406 765.54 1406.85 766.525C1407.71 767.51 1408.29 768.709 1408.52 769.995Z" fill="white"/>
<path d="M4107 583.089C4106.16 621.163 4098.58 658.787 4084.63 694.222C4029.23 826.283 3855.65 826.463 3785.46 708.474C3713.28 849.736 3573.8 804.994 3504.51 714.248C3495.67 703.029 3487.99 690.939 3481.59 678.165C3462.98 643.646 3458.14 603.352 3468.06 565.409C3468.21 564.875 3468.53 564.404 3468.97 564.069C3469.41 563.733 3469.94 563.552 3470.5 563.552C3471.05 563.552 3471.59 563.733 3472.03 564.069C3472.47 564.404 3472.79 564.875 3472.93 565.409C3478.62 591.778 3487.53 617.348 3499.46 641.542C3506.22 655.539 3514.25 668.885 3523.46 681.413C3603.93 792.366 3741.97 792.546 3776.07 610.15C3776.07 606.181 3782.75 606.181 3784.37 610.15C3802.42 660.305 3832.01 718.397 3878.38 743.655C3983.4 799.402 4066.76 691.516 4099.6 582.367C4099.96 581.642 4100.53 581.043 4101.23 580.649C4101.94 580.256 4102.75 580.087 4103.55 580.166C4104.35 580.244 4105.12 580.566 4105.73 581.088C4106.35 581.611 4106.79 582.309 4107 583.089Z" fill="white"/>
</g>
<defs>
<clipPath id="clip0_976_1027">
<rect width="4107" height="1317" fill="white"/>
</clipPath>
</defs>
</svg>
